<svg width="60" height="60" fill="none" xmlns="http://www.w3.org/2000/svg"><path d="M.13 56.293l14.544-32.512c-.658 3.423 3.305 9.615 7.617 13.928 5.242 5.242 11.124 8.316 14.171 7.532a77013.394 77013.394 0 01-32.755 14.63c-.748.344-1.877-.016-2.715-.863-.847-.838-1.207-1.967-.863-2.715z" fill="#F0F1F1"/><path d="M.13 56.293l14.544-32.512c-.657 3.42 3.297 9.604 7.605 13.916L.979 58.994c-.836-.835-1.192-1.956-.85-2.7z" fill="#fff"/><path d="M21.563 15a1.875 1.875 0 100-3.75 1.875 1.875 0 000 3.75z" fill="#5F01D0"/><path d="M36.563 18.75a1.875 1.875 0 100-3.75 1.875 1.875 0 000 3.75z" fill="#F37A10"/><path d="M54.375 26.25a1.875 1.875 0 100-3.75 1.875 1.875 0 000 3.75z" fill="#059BBF"/><path d="M55.313 46.874a1.875 1.875 0 100-3.75 1.875 1.875 0 000 3.75z" fill="#8017FE"/><path d="M33.75 5.625a1.875 1.875 0 100-3.75 1.875 1.875 0 000 3.75z" fill="#12B2A0"/><path d="M46.76 3.424l-3.705 1.888-2.941-2.941.65 4.108-3.706 1.888 4.109.65.65 4.108 1.888-3.706 4.108.65-2.941-2.94 1.888-3.705z" fill="#8017FE"/><path d="M45.97 34.687l-.893 2.749h-2.89l2.339 1.552-.894 2.676 2.338-1.736 2.338 1.68-.893-2.61 2.338-1.562h-2.89l-.893-2.75z" fill="#F37A10"/><path d="M39.375 25.312c9.339 0 11.302-5.937 12.878-10.707 1.314-3.97 2.35-7.105 6.81-7.105a.938.938 0 000-1.875c-5.814 0-7.225 4.266-8.589 8.391-1.602 4.845-3.115 9.421-11.099 9.421a.938.938 0 000 1.875z" fill="#5F01D0"/><path d="M26.836 19.482c6.57-5.257 4.237-8.775 1.98-12.179C27.554 5.401 26.25 3.434 26.25.937a.938.938 0 00-1.875 0c0 3.062 1.53 5.368 2.878 7.403 2.194 3.307 3.643 5.494-1.589 9.678a.937.937 0 001.172 1.464z" fill="#059BBF"/><path d="M59.063 36.562a.938.938 0 000-1.875c-2.68 0-4.818-1.426-6.886-2.805-3.34-2.227-6.794-4.53-11.59.267a.937.937 0 001.326 1.326c3.71-3.709 5.902-2.247 9.223-.033 2.194 1.462 4.679 3.12 7.926 3.12z" fill="#12B2A0"/><path d="M15.207 54.704c-8.547 3.852 1.744-.765-6.812 3.07a65.967 65.967 0 01-5.833-6.92l3.484-7.787a49.413 49.413 0 009.161 11.637z" fill="#5F01D0"/><path d="M10.437 49.537L5.454 54.52a62.135 62.135 0 01-2.892-3.667l3.484-7.788a49.23 49.23 0 004.391 6.47z" fill="#8017FE"/><path d="M22.291 37.708c6.075 6.074 13.02 9.252 15.401 6.867 2.362-2.361-.719-9.253-6.869-15.412-6.158-6.15-13.049-9.22-15.411-6.869-2.75 2.747 1.836 10.372 6.879 15.414z" fill="#E2E4E5"/><path d="M20.927 40.835c-3.35-4.535-5.378-9.324-5.807-13.603-.456-1.303-.632-2.483-.447-3.449l-5.26 11.778c1.318 2.847 3.025 5.708 5.071 8.48 2.1 2.84 4.473 5.47 7.083 7.85l7.127-3.183c-2.825-2.11-5.504-4.797-7.767-7.873z" fill="#5F01D0"/><path d="M30.817 29.158l-8.538 8.537c-5.038-5.042-9.614-12.657-6.868-15.4 2.362-2.35 9.249.717 15.406 6.863z" fill="#F0F1F1"/><path d="M14.673 23.783l-5.26 11.778c1.318 2.847 3.025 5.708 5.071 8.48.206.277.425.541.635.815l5.075-5.075c-2.908-4.221-4.682-8.606-5.078-12.557-.453-1.3-.628-2.478-.443-3.441z" fill="#8017FE"/></svg>