<svg width="60" height="60" fill="none" xmlns="http://www.w3.org/2000/svg"><path d="M23.15 29.604c-.338-.46 4.355-3.885 8.08-5.518" stroke="#373449" stroke-linecap="round" stroke-linejoin="round"/><path d="M12.889 26.54c-.832-.242-1.144-.965-1.08-1.54l1.08 1.54zm-.032.09c-.47-.184-1.01-.127-1.318.363z" fill="#373449"/><path d="M12.857 26.63c-.47-.184-1.01-.127-1.318.363m1.35-.454c-.832-.242-1.144-.964-1.08-1.54l1.08 1.54z" stroke="#373449" stroke-linecap="round"/><path d="M36.87 39.506l2.84 13.232m-3-13.232l-2.84 13.232 2.84-13.232z" stroke="#373449" stroke-linecap="round" stroke-linejoin="round"/><path d="M33.123 24.483c1.47 4.86 1.146 13.45-3.864 19.395 4.798.9 9.596 1.66 14.394.38-5.128-11.05-2.687-16.215-8.636-19.85-.706.205-1.187.176-1.894.075v0z" fill="#5F01D0" stroke="#373449"/><path d="M35.373 24.351c4.81 4.411 2.515 10.45-2.109 11.34" stroke="#373449" stroke-linecap="round" stroke-linejoin="round"/><path d="M22.963 29.483c5.936.661 11.859 5.385 11.795 10.53M40.91 23.06c-2.097 1.611-2.258-1.392-2.386-3.756l2.386 3.756z" stroke="#373449" stroke-linecap="round"/><path d="M33.28 24.764c-2.865.834-7.075 7.866.134 10.917M23.15 29.604c3.942 4 16.224-6.316 12.475-5.198L23.15 29.604zm11.608 10.205l-4.052 13.005 4.052-13.005zm.16 0l9.204 13.156-9.203-13.156zM22.433 30.021a5.013 5.013 0 10-9.466-3.301 5.013 5.013 0 009.466 3.301z" stroke="#373449" stroke-linecap="round" stroke-linejoin="round"/><path d="M18.941 24.166l.01-.01m-1.13 3.222l.01-.01-.01.01z" stroke="#373449" stroke-width="2" stroke-miterlimit="4.067" stroke-linecap="round"/><path d="M26.116 23.06c2.097 1.611 2.258-1.392 2.387-3.756m-7.75 7.794c.283-.194.863-1.306.655-1.96l-.654 1.96z" stroke="#373449" stroke-linecap="round"/><path d="M32.623 19.875l.013.006m-3.415-.006l.013.006-.013-.006z" stroke="#373449" stroke-width="2" stroke-miterlimit="4.067" stroke-linecap="round"/><path d="M30.3 22.841c.275.203.605.411 1.155 0" stroke="#373449" stroke-linecap="round"/><path d="M44.628 30.832c-1.66-1.387-3.446-3.127-3.106-5.303.34-2.177 2.328-1.578 3.56 0 1.138-1.653 2.79-.765 3.334 0 .543.764-3.922 4.605-3.922 4.605l.134.698zM21.245 18.943c-.784-.655-1.627-1.476-1.466-2.504.16-1.028 1.1-.745 1.68 0 .538-.78 1.318-.36 1.575 0 .256.361-1.69 2.308-1.69 2.308" fill="#FF5A67"/><path d="M21.245 18.943c-.784-.655-1.627-1.476-1.466-2.504.16-1.028 1.1-.745 1.68 0 .538-.78 1.318-.36 1.575 0 .256.361-1.69 2.308-1.69 2.308m23.284 12.085c-1.66-1.387-3.446-3.127-3.106-5.303.34-2.177 2.328-1.578 3.56 0 1.138-1.653 2.79-.765 3.334 0 .543.764-3.922 4.605-3.922 4.605l.134.698zM26.486 9.428c-1.599.352-1.627 1.928-.632 1.957.995.029.754-1.934.78-2.182.027-.247-.043-1.655-.043-1.655l-2.524 1.185m8.162.739c-1.599.351-1.627 1.927-.632 1.956.995.029.754-1.934.78-2.181.026-.248-.043-1.656-.043-1.656l1.17-.558-1.275 2.439zm-16.053 6.973c-1.6.351-1.628 1.927-.633 1.956.995.029.754-1.933.78-2.181.027-.248-.042-1.655-.042-1.655l1.169-.559-1.274 2.439zm6.839-6.302c-1.6.352-1.628 1.928-.633 1.957.995.029.754-1.934.78-2.182.027-.247-.042-1.655-.042-1.655l1.169-.558-1.274 2.438zM33.511 24.503a5.013 5.013 0 100-10.026 5.013 5.013 0 000 10.026z" stroke="#373449" stroke-linecap="round" stroke-linejoin="round"/></svg>