<svg width="60" height="60" fill="none" xmlns="http://www.w3.org/2000/svg"><path d="M45.703 49.837a25.256 25.256 0 01-31.406 0L15 47.344a8.55 8.55 0 018.24-6.094h13.52A8.55 8.55 0 0145 47.344l.703 2.493z" fill="#5F01D0"/><path d="M33.75 36.563v5.4a1.875 1.875 0 01-1.04 1.687 6.056 6.056 0 01-5.42 0 1.875 1.875 0 01-1.04-1.688v-5.4h7.5z" fill="#FFD2B4"/><path d="M30 14.26c10.734 0 9.816 10.115 9.816 10.115 1.575-.16 2.812.46 2.812 2.681 0 2.222-.937 2.681-2.203 2.813a.271.271 0 00-.253.253c-.366 3.46-2.813 5.99-5.231 7.687a8.588 8.588 0 01-9.9 0c-2.41-1.697-4.866-4.237-5.232-7.687a.272.272 0 00-.253-.253c-1.228-.122-2.203-.59-2.203-2.813 0-2.222 1.19-2.812 2.756-2.681.02 0-.853-10.116 9.891-10.116z" fill="#FFD2B4"/><path opacity=".1" d="M33.75 38.513v1.406a8.588 8.588 0 01-7.5 0v-1.406a8.587 8.587 0 007.5 0z" fill="#262234"/><path d="M35.766 44.063l-3.16 11.118c-.853.132-1.725.132-2.606.132-.881 0-1.753 0-2.606-.132l-3.16-11.118h11.532z" fill="#E6E7E8"/><path d="M30 47.869a.75.75 0 100-1.5.75.75 0 000 1.5zM30 50.54a.75.75 0 100-1.5.75.75 0 000 1.5zM30 53.212a.75.75 0 100-1.5.75.75 0 000 1.5z" fill="#2A292A"/><path d="M28.538 55.313a23.677 23.677 0 01-3.479-.441l-3.825-6.122 2.316-1.453-1.875-.834 1.49-5.213h1.304l4.069 14.063zm10.228-6.563l-3.825 6.028c-1.147.233-2.31.38-3.479.44l4.07-13.968h1.302l1.528 5.26-1.875.834 2.279 1.406z" fill="#48019D"/><path d="M26.24 39.525L30 43.622l-4.134 2.372-1.407-4.744 1.782-1.725zM33.74 39.525L30 43.622l4.153 2.372 1.388-4.744-1.8-1.725z" fill="#6E01F2"/><path d="M32.944 42.253l-2.307 1.153a.937.937 0 00-1.265 0l-2.306-1.153a.59.59 0 00-.854.525v2.475a.591.591 0 00.854.525l2.287-1.144a.872.872 0 001.303 0l2.288 1.144a.59.59 0 00.853-.525v-2.475a.591.591 0 00-.853-.525zm7.837-23.316a9.86 9.86 0 00-.412-2.287 10.31 10.31 0 00.169-3.853.703.703 0 00-.938-.506c-.225.084-.469.159-.712.234a4.397 4.397 0 000-1.06.712.712 0 00-.938-.562 28.92 28.92 0 01-7.5 1.322H30c-5.71 0-10.313.29-10.772 6.713a28.358 28.358 0 00.131 5.184c.055.862.164 1.72.328 2.569.17.675 1.941.646 2.054 0 .112-.647-.31-3.9 1.284-6.92A19.23 19.23 0 0030 20.954c2.388.06 4.766-.324 7.013-1.134 1.593 3.018 1.2 6.403 1.284 6.919.084.515 1.875.628 2.053 0 .14-.781.227-1.57.262-2.363.228-1.803.284-3.624.17-5.438z" fill="#2A292A"/><path d="M33.44 27.994a2.316 2.316 0 01-2.25-1.875.703.703 0 011.379-.282.938.938 0 001.753 0 .703.703 0 111.378.282 2.316 2.316 0 01-2.26 1.875zm-6.88 0a2.315 2.315 0 01-2.25-1.875.703.703 0 111.378-.282.938.938 0 001.753 0 .703.703 0 011.378.282 2.315 2.315 0 01-2.26 1.875z" fill="#2A292A"/><path d="M30 35.484c1.3 0 2.353-1.292 2.353-2.887S31.3 29.709 30 29.709c-1.3 0-2.353 1.293-2.353 2.888S28.7 35.484 30 35.484z" fill="#611C24"/><path d="M32.006 34.116a2.146 2.146 0 01-4.003 0 2.813 2.813 0 011.997-.6c.721-.066 1.44.149 2.006.6z" fill="#BE1E2D"/><path d="M36.094 37.453a2.672 2.672 0 100-5.344 2.672 2.672 0 000 5.344z" fill="#2A292A"/><path d="M50.1 45.375a21.266 21.266 0 01-1.64 1.931l-3.291-8.184a1.65 1.65 0 00-1.069-.938l-6.563-1.828a.544.544 0 01-.374-.665l.309-1.125a.543.543 0 01.675-.375l6.562 1.828a3.862 3.862 0 012.55 2.287l2.841 7.069z" fill="#2A292A"/><path d="M37.134 35.625l.31-1.125a.554.554 0 01.525-.394.44.44 0 01.15 0l.61.169a2.55 2.55 0 00-.142-.525l-.346-.094a.867.867 0 00-.272 0 1.012 1.012 0 00-.938.74l-.31 1.117a1.003 1.003 0 00.095.768.939.939 0 00.609.478l.347.094c.147-.107.279-.233.394-.375l-.666-.14a.544.544 0 01-.366-.713z" fill="#3B3C3D"/><path d="M17.494 33.497a.881.881 0 00-.694-.216l-3.497.469a.881.881 0 00-.769.872v3.131a1.57 1.57 0 00-.44-.066 1.096 1.096 0 100 2.157 1.19 1.19 0 001.293-1.078v-3.31l3.544-.46v2.176a1.566 1.566 0 00-.44-.066 1.1 1.1 0 00-1.3 1.078 1.097 1.097 0 001.3 1.079 1.19 1.19 0 001.322-1.07v-4.03a.882.882 0 00-.32-.666zm-2.738-9.91a.881.881 0 00-.694-.215l-3.496.46a.882.882 0 00-.77.871v3.131a1.566 1.566 0 00-.44-.065 1.099 1.099 0 00-1.299 1.078 1.097 1.097 0 001.3 1.078 1.19 1.19 0 001.293-1.078v-3.3l3.544-.46v2.175a1.562 1.562 0 00-.44-.065 1.096 1.096 0 100 2.156 1.19 1.19 0 001.293-1.078v-4.031a.881.881 0 00-.29-.657z" fill="#5F01D0"/></svg>